<svg width="209" height="271" viewBox="0 0 209 271" fill="none" xmlns="http://www.w3.org/2000/svg">
<g clip-path="url(#clip0_1_2)">
<path d="M104.38 -0.140015C104.747 -0.140015 104.96 -0.129985 105.02 -0.109985C140.547 12.3167 174.863 24.51 207.97 36.47C208.111 36.5227 208.232 36.617 208.317 36.7402C208.403 36.8635 208.449 37.0099 208.45 37.16C208.563 77.98 208.55 107.503 208.41 125.73C208.09 167.7 189.9 208.92 157.96 237.22C142.4 251.02 123.68 262.24 104.76 271.23C104.687 271.263 104.583 271.28 104.45 271.28C104.317 271.28 104.213 271.263 104.14 271.23C85.22 262.25 66.49 251.04 50.93 237.25C18.97 208.97 0.760009 167.76 0.420009 125.79C0.266676 107.563 0.236679 78.04 0.330013 37.22C0.330585 37.0699 0.376803 36.9235 0.462535 36.8002C0.548267 36.677 0.669453 36.5827 0.810008 36.53C33.91 24.55 68.22 12.3367 103.74 -0.109985C103.793 -0.129985 104.007 -0.140015 104.38 -0.140015ZM18.57 35.98C18.4974 36.0065 18.4364 36.0576 18.3976 36.1245C18.3588 36.1914 18.3448 36.2697 18.3579 36.3459C18.371 36.4221 18.4104 36.4913 18.4693 36.5414C18.5281 36.5914 18.6027 36.6193 18.68 36.62H101.01C101.098 36.62 101.181 36.5852 101.243 36.5233C101.305 36.4615 101.34 36.3775 101.34 36.29V7.09C101.34 7.0373 101.327 6.9854 101.303 6.93866C101.278 6.89192 101.243 6.8517 101.2 6.82135C101.157 6.791 101.107 6.77142 101.055 6.76422C101.003 6.75703 100.95 6.76243 100.9 6.78L18.57 35.98ZM202.71 43.81L202.75 40.55L107.9 6.92999C107.802 6.89489 107.698 6.88412 107.595 6.89853C107.492 6.91294 107.393 6.95211 107.308 7.01282C107.223 7.07352 107.153 7.15398 107.105 7.24744C107.057 7.34089 107.031 7.44463 107.03 7.54999V92.57C107.03 92.6443 106.999 92.7155 106.945 92.768C106.891 92.8205 106.817 92.85 106.74 92.85H101.66C101.58 92.85 101.504 92.8184 101.448 92.7621C101.392 92.7059 101.36 92.6296 101.36 92.55V43.02C101.36 42.8503 101.293 42.6875 101.173 42.5674C101.053 42.4474 100.89 42.38 100.72 42.38H11.14C11.0861 42.3811 11.0336 42.3977 10.9889 42.4279C10.9441 42.4582 10.9091 42.5006 10.888 42.5503C10.8669 42.5999 10.8605 42.6547 10.8698 42.7078C10.879 42.761 10.9034 42.8104 10.94 42.85L44.43 77.94C44.4837 77.9974 44.5127 78.0735 44.5108 78.152C44.5089 78.2306 44.4763 78.3052 44.42 78.36L40.74 81.87C40.6865 81.9194 40.6158 81.946 40.543 81.9441C40.4702 81.9422 40.401 81.9121 40.35 81.86L6.48001 46.37C6.43796 46.3246 6.38334 46.2934 6.32312 46.2803C6.26291 46.2672 6.19982 46.2727 6.14189 46.2963C6.08397 46.3199 6.03384 46.3605 5.99789 46.4128C5.96194 46.465 5.94179 46.5268 5.94001 46.59C5.76668 74.45 5.76668 100.5 5.94001 124.74C6.09335 146.453 11.2233 168.04 21.33 189.5C23.45 194 26.6 198.54 29.23 203.5C29.2868 203.606 29.3664 203.697 29.4629 203.768C29.5594 203.839 29.6705 203.888 29.7882 203.911C29.9059 203.934 30.0272 203.931 30.1433 203.901C30.2595 203.872 30.3677 203.816 30.46 203.74L49.13 188.53C49.1511 188.513 49.1752 188.501 49.2009 188.493C49.2266 188.485 49.2533 188.483 49.2795 188.486C49.3056 188.488 49.3307 188.496 49.3531 188.509C49.3756 188.522 49.3949 188.539 49.41 188.56L100.8 259.44C100.837 259.49 100.889 259.527 100.948 259.546C101.007 259.565 101.071 259.565 101.13 259.546C101.19 259.528 101.242 259.491 101.279 259.442C101.317 259.392 101.338 259.332 101.34 259.27V215.17C101.34 215.085 101.373 215.004 101.431 214.944C101.489 214.884 101.568 214.85 101.65 214.85H106.9C106.972 214.85 107.04 214.878 107.091 214.929C107.142 214.98 107.17 215.048 107.17 215.12V259.79C107.17 259.867 107.195 259.943 107.241 260.005C107.287 260.067 107.352 260.113 107.426 260.136C107.5 260.158 107.579 260.156 107.652 260.13C107.725 260.104 107.787 260.055 107.83 259.99L202.14 121.04C202.674 120.259 202.957 119.334 202.95 118.39C202.83 95.71 202.897 71.4133 203.15 45.5C203.157 44.9867 203.01 44.4233 202.71 43.81ZM115.64 259.49C123.827 255.097 132.79 249.433 142.53 242.5C171.48 221.9 191.38 191.28 199.06 156.78C200.687 149.46 201.897 140.893 202.69 131.08C202.693 131.022 202.677 130.964 202.644 130.915C202.612 130.867 202.564 130.83 202.509 130.811C202.454 130.792 202.394 130.791 202.338 130.809C202.282 130.827 202.234 130.862 202.2 130.91L115.23 259.04C115.187 259.098 115.165 259.169 115.169 259.241C115.172 259.313 115.201 259.381 115.249 259.434C115.298 259.487 115.363 259.522 115.435 259.532C115.506 259.543 115.579 259.528 115.64 259.49ZM47.96 196.67L33.45 208.49C33.3705 208.556 33.3184 208.649 33.3037 208.752C33.2889 208.856 33.3125 208.961 33.37 209.05C37.4033 215.043 42.0433 220.687 47.29 225.98C60.71 239.52 76.02 250.65 93.22 259.37C93.2724 259.395 93.3316 259.401 93.3882 259.389C93.4448 259.376 93.4955 259.345 93.5323 259.3C93.569 259.255 93.5898 259.199 93.5912 259.141C93.5926 259.083 93.5746 259.027 93.54 258.98L48.41 196.73C48.384 196.696 48.3515 196.667 48.3145 196.645C48.2775 196.624 48.2367 196.609 48.1947 196.604C48.1527 196.598 48.1103 196.601 48.0699 196.613C48.0296 196.624 47.9922 196.643 47.96 196.67Z" fill="#FEFEFE"/>
<path d="M202.71 43.81L101.34 190.74C101.316 190.776 101.284 190.806 101.247 190.828C101.21 190.85 101.168 190.864 101.125 190.868C101.081 190.872 101.038 190.866 100.997 190.85C100.957 190.835 100.92 190.811 100.89 190.78L40.8 130.7C40.733 130.632 40.6799 130.551 40.6441 130.463C40.6082 130.374 40.5902 130.28 40.5912 130.185C40.5921 130.09 40.6119 129.996 40.6495 129.91C40.6871 129.823 40.7416 129.745 40.81 129.68L62.61 108.88C62.7273 108.767 62.8843 108.705 63.0471 108.707C63.2098 108.709 63.3653 108.774 63.48 108.89L97.29 142.69C97.4387 142.841 97.6411 142.927 97.853 142.929C98.0648 142.931 98.2687 142.848 98.42 142.7C119.38 122.48 143.063 99.3433 169.47 73.29C174.603 68.2233 179.207 63.7767 183.28 59.95C189.033 54.55 194.78 48.7067 200.52 42.42C200.92 41.9867 201.397 41.85 201.95 42.01C202.437 42.1567 202.703 41.67 202.75 40.55L202.71 43.81Z" fill="#FA9528"/>
</g>
<defs>
<clipPath id="clip0_1_2">
<rect width="209" height="271" fill="white"/>
</clipPath>
</defs>
</svg>
