<svg width="831" height="271" viewBox="0 0 831 271" fill="none" xmlns="http://www.w3.org/2000/svg">
<g clip-path="url(#clip0_1_2)">
<path d="M104.45 271.28C104.583 271.28 104.687 271.263 104.76 271.23C123.68 262.24 142.4 251.02 157.96 237.22C189.9 208.92 208.09 167.7 208.41 125.73C208.55 107.503 208.563 77.98 208.45 37.16C208.449 37.0099 208.403 36.8635 208.317 36.7402C208.232 36.617 208.111 36.5227 207.97 36.47C174.863 24.51 140.547 12.3167 105.02 -0.109985C104.96 -0.129985 104.747 -0.140015 104.38 -0.140015C104.007 -0.140015 103.793 -0.129985 103.74 -0.109985C68.22 12.3367 33.91 24.55 0.810008 36.53C0.669453 36.5827 0.548267 36.677 0.462535 36.8002C0.376803 36.9235 0.330585 37.0699 0.330013 37.22C0.236679 78.04 0.266676 107.563 0.420009 125.79C0.760009 167.76 18.97 208.97 50.93 237.25C66.49 251.04 85.22 262.25 104.14 271.23C104.213 271.263 104.317 271.28 104.45 271.28Z" stroke="#808080" stroke-width="2"/>
<path d="M357.32 94.05H349.68C349.555 94.05 349.436 94.0995 349.348 94.1877C349.26 94.2758 349.21 94.3953 349.21 94.52C349.137 113.04 349.143 131.553 349.23 150.06C349.26 156.44 349.09 163.61 357.03 164.65C359.15 164.93 361.27 164.79 363.39 164.23C363.456 164.211 363.515 164.171 363.556 164.117C363.598 164.063 363.62 163.997 363.62 163.93V157.47C363.621 157.447 363.616 157.425 363.606 157.405C363.597 157.384 363.582 157.366 363.564 157.352C363.546 157.337 363.524 157.327 363.501 157.321C363.478 157.316 363.454 157.315 363.43 157.32C360.59 157.92 358.7 157.273 357.76 155.38C357.609 155.078 357.53 154.742 357.53 154.4V94.26C357.53 94.2043 357.508 94.1509 357.468 94.1115C357.429 94.0721 357.376 94.05 357.32 94.05Z" stroke="#808080" stroke-width="2"/>
<path d="M708.84 157.42V163.8C708.84 163.888 708.875 163.971 708.937 164.033C708.999 164.095 709.082 164.13 709.17 164.13H716.72C716.749 164.13 716.777 164.118 716.798 164.098C716.818 164.077 716.83 164.049 716.83 164.02V94.2C716.83 94.1751 716.825 94.1503 716.816 94.1273C716.806 94.1042 716.792 94.0833 716.774 94.0656C716.757 94.048 716.736 94.034 716.713 94.0245C716.69 94.0149 716.665 94.01 716.64 94.01H708.85C708.802 94.01 708.756 94.03 708.723 94.0656C708.689 94.1013 708.67 94.1496 708.67 94.2V121.22C708.672 121.249 708.664 121.277 708.648 121.3C708.631 121.323 708.607 121.34 708.579 121.348C708.55 121.356 708.519 121.354 708.491 121.344C708.462 121.334 708.437 121.315 708.42 121.29C704.833 115.697 699.593 112.753 692.7 112.46C684.713 112.12 678.32 114.733 673.52 120.3C665.06 130.1 665.61 148.52 673.96 157.69C683.02 167.65 699.3 168.58 707.97 157.13C708.033 157.05 708.12 156.992 708.217 156.963C708.315 156.933 708.419 156.935 708.515 156.967C708.611 156.999 708.693 157.06 708.752 157.141C708.81 157.222 708.841 157.32 708.84 157.42Z" stroke="#808080" stroke-width="2"/>
<path d="M298.97 127.85C298.848 127.85 298.731 127.802 298.645 127.715C298.558 127.629 298.51 127.512 298.51 127.39V105.98C298.51 105.858 298.558 105.741 298.645 105.655C298.731 105.568 298.848 105.52 298.97 105.52H335.3C335.422 105.52 335.539 105.472 335.625 105.385C335.712 105.299 335.76 105.182 335.76 105.06V98.09C335.76 97.968 335.712 97.851 335.625 97.7647C335.539 97.6785 335.422 97.63 335.3 97.63H290.47C290.348 97.63 290.231 97.6785 290.145 97.7647C290.058 97.851 290.01 97.968 290.01 98.09V163.49C290.01 163.612 290.058 163.729 290.145 163.815C290.231 163.902 290.348 163.95 290.47 163.95H298C298.122 163.95 298.239 163.902 298.325 163.815C298.412 163.729 298.46 163.612 298.46 163.49V135.95C298.46 135.828 298.508 135.711 298.595 135.625C298.681 135.538 298.798 135.49 298.92 135.49H331.4C331.522 135.49 331.639 135.442 331.725 135.355C331.812 135.269 331.86 135.152 331.86 135.03V128.31C331.86 128.188 331.812 128.071 331.725 127.985C331.639 127.898 331.522 127.85 331.4 127.85H298.97Z" stroke="#808080" stroke-width="2"/>
<path d="M777.57 97.82C777.478 97.8208 777.388 97.8488 777.311 97.9003C777.235 97.9519 777.175 98.0248 777.14 98.11L749.56 163.73C749.53 163.802 749.519 163.88 749.527 163.957C749.534 164.035 749.561 164.109 749.605 164.174C749.649 164.238 749.707 164.29 749.776 164.327C749.845 164.363 749.922 164.381 750 164.38H758.47C758.565 164.38 758.658 164.352 758.737 164.298C758.815 164.245 758.876 164.169 758.91 164.08L765.18 147.54C765.214 147.451 765.275 147.375 765.353 147.322C765.432 147.268 765.525 147.24 765.62 147.24H797.17C797.266 147.24 797.36 147.27 797.439 147.326C797.517 147.381 797.577 147.459 797.61 147.55L803.39 163.86C803.423 163.95 803.483 164.029 803.561 164.084C803.64 164.14 803.734 164.17 803.83 164.17H812.58C812.657 164.169 812.733 164.15 812.8 164.113C812.868 164.076 812.925 164.024 812.968 163.959C813.01 163.895 813.036 163.822 813.044 163.745C813.051 163.668 813.04 163.591 813.01 163.52L786.12 98.11C786.085 98.0248 786.025 97.9519 785.949 97.9003C785.872 97.8488 785.782 97.8208 785.69 97.82H777.57Z" stroke="#7E4C15" stroke-width="2"/>
<path d="M831.283 98.3127C831.283 98.2615 831.273 98.2108 831.253 98.1635C831.233 98.1162 831.204 98.0733 831.168 98.0371C831.132 98.001 831.089 97.9723 831.042 97.9528C830.994 97.9333 830.943 97.9233 830.892 97.9234L823.272 97.9367C823.221 97.9368 823.17 97.947 823.123 97.9666C823.076 97.9863 823.033 98.0151 822.997 98.0514C822.96 98.0877 822.932 98.1307 822.912 98.1781C822.893 98.2255 822.883 98.2762 822.883 98.3274L822.997 163.747C822.997 163.799 823.007 163.849 823.027 163.896C823.047 163.944 823.076 163.987 823.112 164.023C823.148 164.059 823.191 164.088 823.239 164.107C823.286 164.127 823.337 164.137 823.388 164.137L831.008 164.123C831.059 164.123 831.11 164.113 831.157 164.093C831.204 164.074 831.247 164.045 831.283 164.009C831.32 163.972 831.348 163.929 831.368 163.882C831.387 163.835 831.397 163.784 831.397 163.733L831.283 98.3127Z" stroke="#7E4C15" stroke-width="2"/>
<path d="M553.73 148.26C552.243 152.087 549.65 154.793 545.95 156.38C540.67 158.64 532.82 158.25 528.25 154.51C522.06 149.42 520.46 141.24 522.27 133.47C524.477 123.97 530.73 119.55 541.03 120.21C546.323 120.557 550.617 123.39 553.91 128.71C553.953 128.776 554.016 128.826 554.091 128.851C554.165 128.876 554.246 128.876 554.32 128.85L561.14 126.43C561.175 126.417 561.208 126.397 561.234 126.371C561.261 126.344 561.282 126.312 561.295 126.277C561.309 126.242 561.314 126.204 561.312 126.167C561.309 126.129 561.298 126.093 561.28 126.06C559.6 123.067 557.86 120.647 556.06 118.8C548.24 110.77 533.39 110.59 524.69 116.1C512.8 123.63 509.93 139.6 516.15 151.87C521.64 162.71 532.88 166.76 544.52 164.67C552.353 163.263 557.89 158.75 561.13 151.13C561.147 151.092 561.156 151.05 561.157 151.008C561.157 150.966 561.148 150.923 561.131 150.884C561.115 150.845 561.09 150.809 561.059 150.779C561.027 150.749 560.99 150.726 560.95 150.71L554.08 148.1C554.047 148.087 554.011 148.081 553.975 148.082C553.939 148.084 553.904 148.092 553.872 148.107C553.839 148.122 553.81 148.143 553.785 148.169C553.761 148.195 553.742 148.226 553.73 148.26Z" stroke="#808080" stroke-width="2"/>
<path d="M372.31 138.97C372.37 153.9 382.15 165.35 397.58 165.3C413.02 165.24 422.72 153.72 422.67 138.79C422.61 123.87 412.83 112.41 397.4 112.47C381.96 112.52 372.26 124.05 372.31 138.97Z" stroke="#808080" stroke-width="2"/>
<path d="M650.41 150.83C650.243 150.734 650.046 150.704 649.858 150.744C649.669 150.785 649.503 150.894 649.39 151.05C643.26 159.62 629.45 160.78 622.35 152.57C620.043 149.903 618.58 146.48 617.96 142.3C617.951 142.244 617.955 142.187 617.971 142.132C617.986 142.078 618.014 142.027 618.051 141.985C618.088 141.942 618.134 141.908 618.185 141.884C618.237 141.861 618.293 141.849 618.35 141.85H657.01C657.22 141.85 657.422 141.767 657.572 141.619C657.722 141.471 657.807 141.27 657.81 141.06C657.86 136.01 657.93 131.11 656.3 127.25C653.02 119.483 647.657 114.797 640.21 113.19C631.143 111.23 623.447 113.227 617.12 119.18C608.59 127.22 607.28 143.16 612.97 152.89C618.86 162.97 629.22 166.58 640.44 164.7C647.027 163.593 652.15 160.267 655.81 154.72C655.857 154.648 655.89 154.567 655.905 154.482C655.92 154.397 655.918 154.31 655.898 154.226C655.878 154.143 655.842 154.064 655.79 153.996C655.739 153.928 655.674 153.872 655.6 153.83L650.41 150.83Z" stroke="#808080" stroke-width="2"/>
<path d="M581.98 121.46V113.62C581.98 113.567 581.959 113.516 581.921 113.479C581.884 113.441 581.833 113.42 581.78 113.42H574.34C574.271 113.42 574.205 113.447 574.156 113.496C574.107 113.545 574.08 113.611 574.08 113.68V163.77C574.08 163.829 574.091 163.888 574.113 163.942C574.136 163.997 574.168 164.046 574.209 164.088C574.25 164.13 574.298 164.163 574.352 164.186C574.405 164.208 574.462 164.22 574.52 164.22H581.97C582.022 164.22 582.074 164.209 582.122 164.189C582.17 164.168 582.213 164.138 582.249 164.099C582.286 164.061 582.314 164.016 582.333 163.966C582.352 163.916 582.361 163.863 582.36 163.81C582.213 155.037 582.177 145.477 582.25 135.13C582.29 129.61 583.65 126.41 587.91 123.41C591.37 120.977 596.033 120.11 601.9 120.81C601.951 120.816 602.002 120.811 602.05 120.796C602.099 120.781 602.144 120.756 602.181 120.723C602.219 120.69 602.249 120.649 602.27 120.604C602.29 120.559 602.3 120.51 602.3 120.46V113.22C602.3 113.168 602.282 113.117 602.247 113.077C602.212 113.037 602.164 113.009 602.11 113C593.17 111.573 586.763 114.47 582.89 121.69C582.841 121.788 582.76 121.867 582.661 121.913C582.561 121.959 582.448 121.97 582.342 121.943C582.236 121.916 582.142 121.853 582.076 121.765C582.01 121.678 581.976 121.57 581.98 121.46Z" stroke="#808080" stroke-width="2"/>
<path d="M467.81 125.46C468.037 125.46 468.177 125.537 468.23 125.69C470.503 132.577 474.713 145.23 480.86 163.65C480.926 163.842 481.052 164.009 481.218 164.127C481.385 164.245 481.585 164.309 481.79 164.31H489.24C489.406 164.31 489.567 164.257 489.7 164.16C489.833 164.063 489.931 163.926 489.98 163.77L505.73 113.96C505.739 113.931 505.742 113.901 505.738 113.871C505.733 113.842 505.721 113.813 505.704 113.789C505.686 113.765 505.663 113.745 505.636 113.731C505.61 113.717 505.58 113.71 505.55 113.71H497.48C497.408 113.709 497.337 113.733 497.279 113.776C497.222 113.819 497.18 113.88 497.16 113.95L485.44 153.44C485.419 153.512 485.376 153.576 485.316 153.622C485.257 153.667 485.184 153.693 485.109 153.694C485.034 153.695 484.96 153.672 484.899 153.628C484.838 153.584 484.793 153.522 484.77 153.45L471.86 114.32C471.806 114.166 471.71 114.031 471.582 113.932C471.454 113.833 471.301 113.773 471.14 113.76C470.04 113.687 468.937 113.647 467.83 113.64C466.717 113.64 465.613 113.677 464.52 113.75C464.358 113.761 464.202 113.82 464.072 113.919C463.942 114.019 463.844 114.155 463.79 114.31L450.77 153.4C450.747 153.472 450.702 153.534 450.641 153.578C450.58 153.622 450.506 153.645 450.431 153.644C450.356 153.643 450.283 153.617 450.224 153.572C450.164 153.526 450.121 153.462 450.1 153.39L438.49 113.86C438.47 113.79 438.428 113.729 438.37 113.686C438.313 113.643 438.242 113.619 438.17 113.62L430.1 113.6C430.07 113.6 430.04 113.607 430.014 113.621C429.987 113.635 429.964 113.655 429.946 113.679C429.929 113.703 429.917 113.732 429.912 113.761C429.908 113.791 429.91 113.821 429.92 113.85L445.53 163.7C445.577 163.857 445.672 163.994 445.804 164.093C445.935 164.192 446.095 164.247 446.26 164.25L453.71 164.27C453.917 164.271 454.119 164.208 454.288 164.09C454.456 163.972 454.583 163.804 454.65 163.61C460.85 145.21 465.097 132.57 467.39 125.69C467.443 125.537 467.583 125.46 467.81 125.46Z" stroke="#808080" stroke-width="2"/>
<path d="M18.57 35.98C18.4974 36.0065 18.4364 36.0576 18.3976 36.1245C18.3588 36.1914 18.3448 36.2697 18.3579 36.3459C18.371 36.4221 18.4104 36.4913 18.4692 36.5414C18.5281 36.5915 18.6027 36.6193 18.68 36.62H101.01C101.098 36.62 101.181 36.5852 101.243 36.5234C101.305 36.4615 101.34 36.3775 101.34 36.29V7.09001C101.34 7.03731 101.327 6.98541 101.303 6.93867C101.278 6.89193 101.243 6.85171 101.2 6.82136C101.157 6.79101 101.107 6.77143 101.055 6.76423C101.003 6.75704 100.95 6.76244 100.9 6.78001L18.57 35.98Z" stroke="#808080" stroke-width="2"/>
<path d="M202.71 43.81L202.75 40.55" stroke="#FCCA93" stroke-width="2"/>
<path d="M202.75 40.55L107.9 6.93C107.802 6.8949 107.698 6.88413 107.595 6.89854C107.492 6.91295 107.393 6.95212 107.308 7.01283C107.223 7.07353 107.153 7.15399 107.105 7.24745C107.057 7.3409 107.031 7.44464 107.03 7.55V92.57C107.03 92.6443 106.999 92.7155 106.945 92.768C106.891 92.8205 106.817 92.85 106.74 92.85H101.66C101.58 92.85 101.504 92.8184 101.448 92.7622C101.392 92.7059 101.36 92.6296 101.36 92.55V43.02C101.36 42.8503 101.293 42.6875 101.173 42.5675C101.053 42.4474 100.89 42.38 100.72 42.38H11.14C11.086 42.3811 11.0336 42.3977 10.9888 42.428C10.9441 42.4582 10.9091 42.5006 10.888 42.5503C10.8668 42.6 10.8605 42.6547 10.8697 42.7078C10.879 42.761 10.9034 42.8104 10.94 42.85L44.43 77.94C44.4836 77.9974 44.5127 78.0735 44.5108 78.152C44.5089 78.2306 44.4763 78.3052 44.42 78.36L40.74 81.87C40.6865 81.9194 40.6158 81.946 40.543 81.9441C40.4702 81.9422 40.4009 81.9121 40.35 81.86L6.48 46.37C6.43794 46.3246 6.38332 46.2934 6.32311 46.2803C6.26289 46.2672 6.1998 46.2727 6.14188 46.2963C6.08396 46.3199 6.03383 46.3605 5.99787 46.4128C5.96192 46.4651 5.94177 46.5268 5.94 46.59C5.76666 74.45 5.76666 100.5 5.94 124.74C6.09333 146.453 11.2233 168.04 21.33 189.5C23.45 194 26.6 198.54 29.23 203.5C29.2868 203.606 29.3663 203.697 29.4629 203.768C29.5594 203.839 29.6705 203.888 29.7882 203.911C29.9058 203.934 30.0271 203.931 30.1433 203.901C30.2595 203.872 30.3677 203.816 30.46 203.74L49.13 188.53C49.1511 188.513 49.1752 188.501 49.2009 188.493C49.2266 188.485 49.2533 188.483 49.2795 188.486C49.3056 188.488 49.3307 188.496 49.3531 188.509C49.3755 188.522 49.3949 188.539 49.41 188.56L100.8 259.44C100.837 259.49 100.889 259.527 100.948 259.546C101.007 259.565 101.071 259.565 101.13 259.546C101.19 259.528 101.242 259.491 101.279 259.442C101.317 259.392 101.338 259.332 101.34 259.27V215.17C101.34 215.085 101.373 215.004 101.431 214.944C101.489 214.884 101.568 214.85 101.65 214.85H106.9C106.972 214.85 107.04 214.878 107.091 214.929C107.142 214.98 107.17 215.048 107.17 215.12V259.79C107.17 259.867 107.195 259.943 107.241 260.005C107.287 260.067 107.351 260.113 107.426 260.136C107.5 260.158 107.579 260.156 107.652 260.13C107.725 260.104 107.787 260.055 107.83 259.99L202.14 121.04C202.674 120.259 202.957 119.334 202.95 118.39C202.83 95.71 202.897 71.4133 203.15 45.5C203.157 44.9867 203.01 44.4233 202.71 43.81" stroke="#808080" stroke-width="2"/>
<path d="M202.75 40.55C202.703 41.67 202.437 42.1567 201.95 42.01C201.397 41.85 200.92 41.9867 200.52 42.42C194.78 48.7067 189.033 54.55 183.28 59.95C179.207 63.7767 174.603 68.2233 169.47 73.29C143.063 99.3433 119.38 122.48 98.42 142.7C98.2687 142.848 98.0648 142.931 97.853 142.929C97.6411 142.927 97.4387 142.841 97.29 142.69L63.48 108.89C63.3653 108.774 63.2098 108.709 63.0471 108.707C62.8843 108.705 62.7273 108.767 62.61 108.88L40.81 129.68C40.7416 129.745 40.6871 129.823 40.6495 129.91C40.6119 129.996 40.5921 130.09 40.5912 130.185C40.5902 130.28 40.6082 130.374 40.6441 130.463C40.6799 130.551 40.733 130.632 40.8 130.7L100.89 190.78C100.92 190.811 100.957 190.835 100.997 190.85C101.038 190.866 101.081 190.872 101.125 190.868C101.168 190.864 101.21 190.85 101.247 190.828C101.284 190.806 101.316 190.776 101.34 190.74L202.71 43.81" stroke="#7E4C15" stroke-width="2"/>
<path d="M115.64 259.49C123.827 255.097 132.79 249.433 142.53 242.5C171.48 221.9 191.38 191.28 199.06 156.78C200.687 149.46 201.897 140.893 202.69 131.08C202.693 131.022 202.677 130.964 202.644 130.915C202.612 130.867 202.564 130.83 202.509 130.811C202.454 130.792 202.394 130.791 202.338 130.809C202.282 130.827 202.234 130.862 202.2 130.91L115.23 259.04C115.187 259.098 115.165 259.169 115.169 259.241C115.172 259.313 115.201 259.381 115.249 259.434C115.298 259.487 115.363 259.522 115.435 259.532C115.506 259.543 115.579 259.528 115.64 259.49Z" stroke="#808080" stroke-width="2"/>
<path d="M47.96 196.67L33.45 208.49C33.3705 208.556 33.3184 208.649 33.3037 208.752C33.2889 208.856 33.3125 208.961 33.37 209.05C37.4033 215.043 42.0433 220.687 47.29 225.98C60.71 239.52 76.02 250.65 93.22 259.37C93.2724 259.395 93.3316 259.401 93.3882 259.389C93.4448 259.376 93.4955 259.345 93.5323 259.3C93.569 259.255 93.5898 259.199 93.5912 259.141C93.5926 259.083 93.5746 259.027 93.54 258.98L48.41 196.73C48.3839 196.696 48.3514 196.667 48.3145 196.645C48.2775 196.624 48.2367 196.609 48.1947 196.604C48.1527 196.598 48.1103 196.601 48.0699 196.613C48.0296 196.624 47.9922 196.643 47.96 196.67Z" stroke="#808080" stroke-width="2"/>
<path d="M708.446 134.824C708.439 132.888 708.051 130.973 707.304 129.187C706.557 127.402 705.466 125.78 704.092 124.416C702.719 123.052 701.09 121.972 699.299 121.238C697.508 120.503 695.59 120.129 693.655 120.136L691.095 120.145C687.185 120.158 683.442 121.724 680.687 124.498C677.932 127.272 676.393 131.027 676.406 134.936L676.434 142.916C676.441 144.852 676.829 146.767 677.576 148.553C678.323 150.338 679.414 151.96 680.788 153.324C682.161 154.688 683.79 155.768 685.581 156.502C687.372 157.237 689.29 157.611 691.225 157.604L693.785 157.595C697.695 157.582 701.438 156.016 704.193 153.242C706.948 150.468 708.487 146.713 708.474 142.804L708.446 134.824Z" stroke="#808080" stroke-width="2"/>
<path d="M768.42 139.18C768.386 139.266 768.373 139.36 768.383 139.452C768.394 139.545 768.426 139.633 768.478 139.71C768.531 139.787 768.601 139.85 768.683 139.894C768.765 139.937 768.857 139.96 768.95 139.96L793.63 140C793.723 140 793.815 139.977 793.897 139.934C793.979 139.89 794.049 139.827 794.102 139.75C794.154 139.673 794.186 139.585 794.197 139.492C794.207 139.4 794.194 139.306 794.16 139.22L781.88 108.24C781.838 108.134 781.765 108.043 781.67 107.978C781.576 107.914 781.464 107.88 781.35 107.88C781.236 107.88 781.124 107.914 781.03 107.978C780.935 108.043 780.862 108.134 780.82 108.24L768.42 139.18Z" stroke="#7E4C15" stroke-width="2"/>
<path d="M380.79 139.18C380.98 149.47 386.6 158.11 397.81 157.91C409.02 157.7 414.32 148.86 414.13 138.57C413.94 128.28 408.32 119.64 397.11 119.84C385.9 120.05 380.6 128.89 380.79 139.18Z" stroke="#808080" stroke-width="2"/>
<path d="M618.44 135.41L649.42 135.51C649.478 135.51 649.534 135.487 649.576 135.446C649.617 135.404 649.64 135.348 649.64 135.29V135.14C649.654 131.044 648.071 127.11 645.239 124.204C642.407 121.297 638.559 119.656 634.54 119.64H633.44C631.448 119.632 629.475 120.024 627.632 120.794C625.789 121.564 624.113 122.696 622.7 124.127C621.286 125.557 620.163 127.257 619.394 129.129C618.626 131.002 618.227 133.01 618.22 135.04V135.19C618.22 135.248 618.243 135.304 618.284 135.346C618.326 135.387 618.382 135.41 618.44 135.41Z" stroke="#808080" stroke-width="2"/>
<path d="M104.38 -0.140015C104.747 -0.140015 104.96 -0.129985 105.02 -0.109985C140.547 12.3167 174.863 24.51 207.97 36.47C208.111 36.5227 208.232 36.617 208.317 36.7402C208.403 36.8635 208.449 37.0099 208.45 37.16C208.563 77.98 208.55 107.503 208.41 125.73C208.09 167.7 189.9 208.92 157.96 237.22C142.4 251.02 123.68 262.24 104.76 271.23C104.687 271.263 104.583 271.28 104.45 271.28C104.317 271.28 104.213 271.263 104.14 271.23C85.22 262.25 66.49 251.04 50.93 237.25C18.97 208.97 0.760009 167.76 0.420009 125.79C0.266676 107.563 0.236679 78.04 0.330013 37.22C0.330585 37.0699 0.376803 36.9235 0.462535 36.8002C0.548267 36.677 0.669453 36.5827 0.810008 36.53C33.91 24.55 68.22 12.3367 103.74 -0.109985C103.793 -0.129985 104.007 -0.140015 104.38 -0.140015ZM18.57 35.98C18.4974 36.0065 18.4364 36.0576 18.3976 36.1245C18.3588 36.1914 18.3448 36.2697 18.3579 36.3459C18.371 36.4221 18.4104 36.4913 18.4693 36.5414C18.5281 36.5914 18.6027 36.6193 18.68 36.62H101.01C101.098 36.62 101.181 36.5852 101.243 36.5233C101.305 36.4615 101.34 36.3775 101.34 36.29V7.09C101.34 7.0373 101.327 6.9854 101.303 6.93866C101.278 6.89192 101.243 6.8517 101.2 6.82135C101.157 6.791 101.107 6.77142 101.055 6.76422C101.003 6.75703 100.95 6.76243 100.9 6.78L18.57 35.98ZM202.71 43.81L202.75 40.55L107.9 6.92999C107.802 6.89489 107.698 6.88412 107.595 6.89853C107.492 6.91294 107.393 6.95211 107.308 7.01282C107.223 7.07352 107.153 7.15398 107.105 7.24744C107.057 7.34089 107.031 7.44463 107.03 7.54999V92.57C107.03 92.6443 106.999 92.7155 106.945 92.768C106.891 92.8205 106.817 92.85 106.74 92.85H101.66C101.58 92.85 101.504 92.8184 101.448 92.7621C101.392 92.7059 101.36 92.6296 101.36 92.55V43.02C101.36 42.8503 101.293 42.6875 101.173 42.5674C101.053 42.4474 100.89 42.38 100.72 42.38H11.14C11.0861 42.3811 11.0336 42.3977 10.9889 42.4279C10.9441 42.4582 10.9091 42.5006 10.888 42.5503C10.8669 42.5999 10.8605 42.6547 10.8698 42.7078C10.879 42.761 10.9034 42.8104 10.94 42.85L44.43 77.94C44.4837 77.9974 44.5127 78.0735 44.5108 78.152C44.5089 78.2306 44.4763 78.3052 44.42 78.36L40.74 81.87C40.6865 81.9194 40.6158 81.946 40.543 81.9441C40.4702 81.9422 40.401 81.9121 40.35 81.86L6.48001 46.37C6.43796 46.3246 6.38334 46.2934 6.32312 46.2803C6.26291 46.2672 6.19982 46.2727 6.14189 46.2963C6.08397 46.3199 6.03384 46.3605 5.99789 46.4128C5.96194 46.465 5.94179 46.5268 5.94001 46.59C5.76668 74.45 5.76668 100.5 5.94001 124.74C6.09335 146.453 11.2233 168.04 21.33 189.5C23.45 194 26.6 198.54 29.23 203.5C29.2868 203.606 29.3664 203.697 29.4629 203.768C29.5594 203.839 29.6705 203.888 29.7882 203.911C29.9059 203.934 30.0272 203.931 30.1433 203.901C30.2595 203.872 30.3677 203.816 30.46 203.74L49.13 188.53C49.1511 188.513 49.1752 188.501 49.2009 188.493C49.2266 188.485 49.2533 188.483 49.2795 188.486C49.3056 188.488 49.3307 188.496 49.3531 188.509C49.3756 188.522 49.3949 188.539 49.41 188.56L100.8 259.44C100.837 259.49 100.889 259.527 100.948 259.546C101.007 259.565 101.071 259.565 101.13 259.546C101.19 259.528 101.242 259.491 101.279 259.442C101.317 259.392 101.338 259.332 101.34 259.27V215.17C101.34 215.085 101.373 215.004 101.431 214.944C101.489 214.884 101.568 214.85 101.65 214.85H106.9C106.972 214.85 107.04 214.878 107.091 214.929C107.142 214.98 107.17 215.048 107.17 215.12V259.79C107.17 259.867 107.195 259.943 107.241 260.005C107.287 260.067 107.352 260.113 107.426 260.136C107.5 260.158 107.579 260.156 107.652 260.13C107.725 260.104 107.787 260.055 107.83 259.99L202.14 121.04C202.674 120.259 202.957 119.334 202.95 118.39C202.83 95.71 202.897 71.4133 203.15 45.5C203.157 44.9867 203.01 44.4233 202.71 43.81ZM115.64 259.49C123.827 255.097 132.79 249.433 142.53 242.5C171.48 221.9 191.38 191.28 199.06 156.78C200.687 149.46 201.897 140.893 202.69 131.08C202.693 131.022 202.677 130.964 202.644 130.915C202.612 130.867 202.564 130.83 202.509 130.811C202.454 130.792 202.394 130.791 202.338 130.809C202.282 130.827 202.234 130.862 202.2 130.91L115.23 259.04C115.187 259.098 115.165 259.169 115.169 259.241C115.172 259.313 115.201 259.381 115.249 259.434C115.298 259.487 115.363 259.522 115.435 259.532C115.506 259.543 115.579 259.528 115.64 259.49ZM47.96 196.67L33.45 208.49C33.3705 208.556 33.3184 208.649 33.3037 208.752C33.2889 208.856 33.3125 208.961 33.37 209.05C37.4033 215.043 42.0433 220.687 47.29 225.98C60.71 239.52 76.02 250.65 93.22 259.37C93.2724 259.395 93.3316 259.401 93.3882 259.389C93.4448 259.376 93.4955 259.345 93.5323 259.3C93.569 259.255 93.5898 259.199 93.5912 259.141C93.5926 259.083 93.5746 259.027 93.54 258.98L48.41 196.73C48.384 196.696 48.3515 196.667 48.3145 196.645C48.2775 196.624 48.2367 196.609 48.1947 196.604C48.1527 196.598 48.1103 196.601 48.0699 196.613C48.0296 196.624 47.9922 196.643 47.96 196.67Z" fill="#FEFEFE"/>
<path d="M202.71 43.81L101.34 190.74C101.316 190.776 101.284 190.806 101.247 190.828C101.21 190.85 101.168 190.864 101.125 190.868C101.081 190.872 101.038 190.866 100.997 190.85C100.957 190.835 100.92 190.811 100.89 190.78L40.8 130.7C40.733 130.632 40.6799 130.551 40.6441 130.463C40.6082 130.374 40.5902 130.28 40.5912 130.185C40.5921 130.09 40.6119 129.996 40.6495 129.91C40.6871 129.823 40.7416 129.745 40.81 129.68L62.61 108.88C62.7273 108.767 62.8843 108.705 63.0471 108.707C63.2098 108.709 63.3653 108.774 63.48 108.89L97.29 142.69C97.4387 142.841 97.6411 142.927 97.853 142.929C98.0648 142.931 98.2687 142.848 98.42 142.7C119.38 122.48 143.063 99.3433 169.47 73.29C174.603 68.2233 179.207 63.7767 183.28 59.95C189.033 54.55 194.78 48.7067 200.52 42.42C200.92 41.9867 201.397 41.85 201.95 42.01C202.437 42.1567 202.703 41.67 202.75 40.55L202.71 43.81Z" fill="#FA9528"/>
<path d="M357.32 94.05C357.376 94.05 357.429 94.0721 357.468 94.1115C357.508 94.1509 357.53 94.2043 357.53 94.26V154.4C357.53 154.742 357.609 155.078 357.76 155.38C358.7 157.273 360.59 157.92 363.43 157.32C363.454 157.315 363.478 157.316 363.501 157.321C363.524 157.327 363.546 157.337 363.564 157.352C363.582 157.366 363.597 157.384 363.606 157.405C363.616 157.425 363.621 157.447 363.62 157.47V163.93C363.62 163.997 363.598 164.063 363.556 164.117C363.515 164.171 363.456 164.211 363.39 164.23C361.27 164.79 359.15 164.93 357.03 164.65C349.09 163.61 349.26 156.44 349.23 150.06C349.143 131.553 349.137 113.04 349.21 94.52C349.21 94.3953 349.26 94.2758 349.348 94.1877C349.436 94.0995 349.555 94.05 349.68 94.05H357.32Z" fill="#FEFEFE"/>
<path d="M708.84 157.42C708.841 157.32 708.81 157.222 708.752 157.141C708.693 157.06 708.611 156.999 708.515 156.967C708.419 156.935 708.315 156.933 708.217 156.963C708.12 156.992 708.033 157.05 707.97 157.13C699.3 168.58 683.02 167.65 673.96 157.69C665.61 148.52 665.06 130.1 673.52 120.3C678.32 114.733 684.713 112.12 692.7 112.46C699.593 112.753 704.833 115.697 708.42 121.29C708.437 121.315 708.462 121.334 708.491 121.344C708.519 121.354 708.55 121.356 708.579 121.348C708.607 121.34 708.631 121.323 708.648 121.3C708.664 121.277 708.672 121.249 708.67 121.22V94.2C708.67 94.1496 708.689 94.1013 708.723 94.0656C708.756 94.03 708.802 94.01 708.85 94.01H716.64C716.665 94.01 716.69 94.0149 716.713 94.0245C716.736 94.034 716.757 94.048 716.774 94.0656C716.792 94.0833 716.806 94.1042 716.816 94.1273C716.825 94.1503 716.83 94.1751 716.83 94.2V164.02C716.83 164.049 716.818 164.077 716.798 164.098C716.777 164.118 716.749 164.13 716.72 164.13H709.17C709.082 164.13 708.999 164.095 708.937 164.033C708.875 163.971 708.84 163.888 708.84 163.8V157.42ZM708.446 134.824C708.439 132.888 708.051 130.973 707.304 129.187C706.557 127.402 705.466 125.78 704.092 124.416C702.719 123.052 701.09 121.972 699.299 121.238C697.508 120.503 695.59 120.129 693.655 120.136L691.095 120.145C687.185 120.158 683.442 121.724 680.687 124.498C677.932 127.272 676.393 131.027 676.406 134.936L676.434 142.916C676.441 144.852 676.829 146.767 677.576 148.553C678.323 150.338 679.414 151.96 680.788 153.324C682.161 154.688 683.79 155.768 685.581 156.502C687.372 157.237 689.29 157.611 691.225 157.604L693.785 157.595C697.695 157.582 701.438 156.016 704.193 153.242C706.948 150.468 708.487 146.713 708.474 142.804L708.446 134.824Z" fill="#FEFEFE"/>
<path d="M298.97 127.85H331.4C331.522 127.85 331.639 127.898 331.725 127.985C331.812 128.071 331.86 128.188 331.86 128.31V135.03C331.86 135.152 331.812 135.269 331.725 135.355C331.639 135.442 331.522 135.49 331.4 135.49H298.92C298.798 135.49 298.681 135.538 298.595 135.625C298.508 135.711 298.46 135.828 298.46 135.95V163.49C298.46 163.612 298.412 163.729 298.325 163.815C298.239 163.902 298.122 163.95 298 163.95H290.47C290.348 163.95 290.231 163.902 290.145 163.815C290.058 163.729 290.01 163.612 290.01 163.49V98.09C290.01 97.968 290.058 97.851 290.145 97.7647C290.231 97.6785 290.348 97.63 290.47 97.63H335.3C335.422 97.63 335.539 97.6785 335.625 97.7647C335.712 97.851 335.76 97.968 335.76 98.09V105.06C335.76 105.182 335.712 105.299 335.625 105.385C335.539 105.472 335.422 105.52 335.3 105.52H298.97C298.848 105.52 298.731 105.568 298.645 105.655C298.558 105.741 298.51 105.858 298.51 105.98V127.39C298.51 127.512 298.558 127.629 298.645 127.715C298.731 127.802 298.848 127.85 298.97 127.85Z" fill="#FEFEFE"/>
<path d="M777.57 97.82H785.69C785.782 97.8208 785.872 97.8488 785.949 97.9003C786.025 97.9519 786.085 98.0248 786.12 98.11L813.01 163.52C813.04 163.591 813.051 163.668 813.044 163.745C813.036 163.822 813.01 163.895 812.968 163.959C812.925 164.024 812.868 164.076 812.8 164.113C812.733 164.15 812.657 164.169 812.58 164.17H803.83C803.734 164.17 803.64 164.14 803.561 164.084C803.483 164.029 803.423 163.95 803.39 163.86L797.61 147.55C797.577 147.459 797.517 147.381 797.439 147.326C797.36 147.27 797.266 147.24 797.17 147.24H765.62C765.525 147.24 765.432 147.268 765.353 147.322C765.275 147.375 765.214 147.451 765.18 147.54L758.91 164.08C758.876 164.169 758.815 164.245 758.737 164.298C758.658 164.352 758.565 164.38 758.47 164.38H750C749.922 164.381 749.845 164.363 749.776 164.327C749.707 164.29 749.649 164.238 749.605 164.174C749.561 164.109 749.534 164.035 749.527 163.957C749.519 163.88 749.53 163.802 749.56 163.73L777.14 98.11C777.175 98.0248 777.235 97.9519 777.311 97.9003C777.388 97.8488 777.478 97.8208 777.57 97.82ZM768.42 139.18C768.386 139.266 768.373 139.36 768.383 139.452C768.394 139.545 768.426 139.633 768.478 139.71C768.531 139.787 768.601 139.85 768.683 139.894C768.765 139.937 768.857 139.96 768.95 139.96L793.63 140C793.723 140 793.815 139.977 793.897 139.934C793.979 139.89 794.049 139.827 794.102 139.75C794.154 139.673 794.186 139.585 794.197 139.492C794.207 139.4 794.194 139.306 794.16 139.22L781.88 108.24C781.838 108.134 781.765 108.043 781.67 107.978C781.576 107.914 781.464 107.88 781.35 107.88C781.236 107.88 781.124 107.914 781.03 107.978C780.935 108.043 780.862 108.134 780.82 108.24L768.42 139.18Z" fill="#FA9528"/>
<path d="M830.892 97.9234L823.272 97.9367C823.057 97.9371 822.883 98.112 822.883 98.3274L822.997 163.747C822.997 163.963 823.172 164.137 823.388 164.137L831.008 164.123C831.223 164.123 831.397 163.948 831.397 163.733L831.283 98.3127C831.283 98.0973 831.108 97.923 830.892 97.9234Z" fill="#FA9528"/>
<path d="M553.73 148.26C553.742 148.226 553.761 148.195 553.785 148.169C553.81 148.143 553.839 148.122 553.872 148.107C553.904 148.092 553.939 148.084 553.975 148.082C554.011 148.081 554.047 148.087 554.08 148.1L560.95 150.71C560.99 150.726 561.027 150.749 561.059 150.779C561.09 150.809 561.115 150.845 561.131 150.884C561.148 150.923 561.157 150.966 561.157 151.008C561.156 151.05 561.147 151.092 561.13 151.13C557.89 158.75 552.353 163.263 544.52 164.67C532.88 166.76 521.64 162.71 516.15 151.87C509.93 139.6 512.8 123.63 524.69 116.1C533.39 110.59 548.24 110.77 556.06 118.8C557.86 120.647 559.6 123.067 561.28 126.06C561.298 126.093 561.309 126.129 561.312 126.167C561.314 126.204 561.309 126.242 561.295 126.277C561.282 126.312 561.261 126.344 561.234 126.371C561.208 126.397 561.175 126.417 561.14 126.43L554.32 128.85C554.246 128.876 554.165 128.876 554.091 128.851C554.016 128.826 553.953 128.776 553.91 128.71C550.617 123.39 546.323 120.557 541.03 120.21C530.73 119.55 524.477 123.97 522.27 133.47C520.46 141.24 522.06 149.42 528.25 154.51C532.82 158.25 540.67 158.64 545.95 156.38C549.65 154.793 552.243 152.087 553.73 148.26Z" fill="#FEFEFE"/>
<path d="M397.4 112.47C412.83 112.41 422.61 123.87 422.67 138.79C422.72 153.72 413.02 165.24 397.58 165.3C382.15 165.35 372.37 153.9 372.31 138.97C372.26 124.05 381.96 112.52 397.4 112.47ZM380.79 139.18C380.98 149.47 386.6 158.11 397.81 157.91C409.02 157.7 414.32 148.86 414.13 138.57C413.94 128.28 408.32 119.64 397.11 119.84C385.9 120.05 380.6 128.89 380.79 139.18Z" fill="#FEFEFE"/>
<path d="M655.81 154.72C652.15 160.267 647.027 163.593 640.44 164.7C629.22 166.58 618.86 162.97 612.97 152.89C607.28 143.16 608.59 127.22 617.12 119.18C623.447 113.227 631.143 111.23 640.21 113.19C647.657 114.797 653.02 119.483 656.3 127.25C657.93 131.11 657.86 136.01 657.81 141.06C657.807 141.27 657.722 141.471 657.572 141.619C657.422 141.767 657.22 141.85 657.01 141.85H618.35C618.293 141.849 618.237 141.861 618.185 141.884C618.134 141.908 618.088 141.942 618.051 141.985C618.014 142.027 617.986 142.078 617.971 142.132C617.955 142.187 617.951 142.244 617.96 142.3C618.58 146.48 620.043 149.903 622.35 152.57C629.45 160.78 643.26 159.62 649.39 151.05C649.503 150.894 649.669 150.785 649.858 150.744C650.046 150.704 650.243 150.734 650.41 150.83L655.6 153.83C655.674 153.872 655.739 153.928 655.79 153.996C655.842 154.064 655.878 154.143 655.898 154.226C655.918 154.31 655.92 154.397 655.905 154.482C655.89 154.567 655.857 154.648 655.81 154.72ZM618.44 135.41L649.42 135.51C649.478 135.51 649.534 135.487 649.576 135.446C649.617 135.404 649.64 135.348 649.64 135.29V135.14C649.654 131.044 648.071 127.11 645.239 124.204C642.407 121.297 638.559 119.656 634.54 119.64H633.44C631.448 119.632 629.475 120.024 627.632 120.794C625.789 121.564 624.113 122.696 622.7 124.127C621.286 125.557 620.163 127.257 619.394 129.129C618.626 131.002 618.227 133.01 618.22 135.04V135.19C618.22 135.248 618.243 135.304 618.284 135.346C618.326 135.387 618.382 135.41 618.44 135.41Z" fill="#FEFEFE"/>
<path d="M581.98 121.46C581.976 121.57 582.01 121.678 582.076 121.765C582.142 121.853 582.236 121.916 582.342 121.943C582.448 121.97 582.561 121.959 582.661 121.913C582.76 121.867 582.841 121.788 582.89 121.69C586.763 114.47 593.17 111.573 602.11 113C602.164 113.009 602.212 113.037 602.247 113.077C602.282 113.117 602.3 113.168 602.3 113.22V120.46C602.3 120.51 602.29 120.559 602.27 120.604C602.249 120.649 602.219 120.69 602.181 120.723C602.144 120.756 602.099 120.781 602.05 120.796C602.002 120.811 601.951 120.816 601.9 120.81C596.033 120.11 591.37 120.977 587.91 123.41C583.65 126.41 582.29 129.61 582.25 135.13C582.177 145.477 582.213 155.037 582.36 163.81C582.361 163.863 582.352 163.916 582.333 163.966C582.314 164.016 582.286 164.061 582.249 164.099C582.213 164.138 582.17 164.168 582.122 164.189C582.074 164.209 582.022 164.22 581.97 164.22H574.52C574.403 164.22 574.291 164.173 574.209 164.088C574.126 164.004 574.08 163.889 574.08 163.77V113.68C574.08 113.611 574.107 113.545 574.156 113.496C574.205 113.447 574.271 113.42 574.34 113.42H581.78C581.833 113.42 581.884 113.441 581.921 113.479C581.959 113.516 581.98 113.567 581.98 113.62V121.46Z" fill="#FEFEFE"/>
<path d="M467.83 113.64C468.937 113.647 470.04 113.687 471.14 113.76C471.301 113.773 471.454 113.833 471.582 113.932C471.71 114.031 471.806 114.166 471.86 114.32L484.77 153.45C484.793 153.522 484.838 153.584 484.899 153.628C484.96 153.672 485.034 153.695 485.109 153.694C485.184 153.693 485.257 153.667 485.316 153.622C485.376 153.576 485.419 153.512 485.44 153.44L497.16 113.95C497.18 113.88 497.222 113.819 497.279 113.776C497.337 113.733 497.408 113.709 497.48 113.71H505.55C505.58 113.71 505.61 113.717 505.636 113.731C505.663 113.745 505.686 113.765 505.704 113.789C505.721 113.813 505.733 113.842 505.738 113.871C505.742 113.901 505.739 113.931 505.73 113.96L489.98 163.77C489.931 163.926 489.833 164.063 489.7 164.16C489.567 164.257 489.406 164.31 489.24 164.31H481.79C481.585 164.309 481.385 164.245 481.218 164.127C481.052 164.009 480.926 163.842 480.86 163.65C474.713 145.23 470.503 132.577 468.23 125.69C468.177 125.537 468.037 125.46 467.81 125.46C467.583 125.46 467.443 125.537 467.39 125.69C465.097 132.57 460.85 145.21 454.65 163.61C454.583 163.804 454.456 163.972 454.288 164.09C454.119 164.208 453.917 164.271 453.71 164.27L446.26 164.25C446.095 164.247 445.935 164.192 445.804 164.093C445.672 163.994 445.577 163.857 445.53 163.7L429.92 113.85C429.91 113.821 429.908 113.791 429.912 113.761C429.917 113.732 429.929 113.703 429.946 113.679C429.964 113.655 429.987 113.635 430.014 113.621C430.04 113.607 430.07 113.6 430.1 113.6L438.17 113.62C438.242 113.619 438.313 113.643 438.37 113.686C438.428 113.729 438.47 113.79 438.49 113.86L450.1 153.39C450.121 153.462 450.164 153.526 450.224 153.572C450.283 153.617 450.356 153.643 450.431 153.644C450.506 153.645 450.58 153.622 450.641 153.578C450.702 153.534 450.747 153.472 450.77 153.4L463.79 114.31C463.844 114.155 463.942 114.019 464.072 113.919C464.202 113.82 464.358 113.761 464.52 113.75C465.613 113.677 466.717 113.64 467.83 113.64Z" fill="#FEFEFE"/>
</g>
<defs>
<clipPath id="clip0_1_2">
<rect width="831" height="271" fill="white"/>
</clipPath>
</defs>
</svg>
